<?xml version="1.0" encoding="utf-8"?>
<!-- Generator: Adobe Illustrator 24.1.0, SVG Export Plug-In . SVG Version: 6.00 Build 0)  -->
<svg version="1.1" id="Layer_1" xmlns="http://www.w3.org/2000/svg" xmlns:xlink="http://www.w3.org/1999/xlink" x="0px" y="0px"
	 viewBox="0 0 2500 2500" style="enable-background:new 0 0 2500 2500;" xml:space="preserve">
<style type="text/css">
	.st0{fill:#FF4A6B;}
</style>
<path class="st0" d="M2362,0H138C61.8,0,0,61.8,0,138v2224c0,76.2,61.8,138,138,138h1197.5v-968.3h-325.8v-377.3h325.8V876.2
	c0-322.9,197.2-498.7,485.3-498.7c137.9,0,256.5,10.3,291.1,14.9v337.5l-199.8,0.1c-156.7,0-187,74.5-187,183.7v240.9h373.6
	l-48.7,377.3h-325V2500h637c76.2,0,138-61.8,138-138V138C2500,61.8,2438.2,0,2362,0z"/>
</svg>
