<svg xmlns="http://www.w3.org/2000/svg" viewBox="0 0 178.1 291.53"><defs><style>.cls-1{fill:#39368b;}</style></defs><title>logo_blue2</title><g id="Layer_2" data-name="Layer 2"><g id="Layer_1-2" data-name="Layer 1"><g id="cancer_symbol" data-name="cancer symbol"><path class="cls-1" d="M38.54,217.27c.74.34,1.57,1.07,2.22.94a29.76,29.76,0,0,0,4.45-1.63c-.56-1.17-1.22-3.37-1.66-3.33A10.34,10.34,0,0,0,39.21,215c-.5.33-.44,1.51-.61,2.32L32.81,220l1.92,2.43,4.05,2.47,2.83-4.07Zm10.28-9.49,5.83-3.14c-5.43-4.79-6.48-4.48-8.48,1.26L43,211.36l5.17,1.16Zm-3.49-90.9A47.32,47.32,0,0,0,40,120.29c-.5.4-.22,1.76-.3,2.68l6.8-2.23L45.21,117l-2.76-6.53c-2.07,1.49-3.61,2.46-5,3.64a7.77,7.77,0,0,0-1.26,2.25,9.8,9.8,0,0,0,2.76.87C41.11,117.22,43.23,117,45.33,116.88ZM135.6,260c-.86,1.78-1.71,3.56-2.45,5.1L131,263.53l-1.08,1a29.54,29.54,0,0,0,3.39,3.9c.38.33,1.79-.21,2.48-.7a29.77,29.77,0,0,0,3.35-3.48L135.57,260c-2.09-7.28-5.92-3.64-10.37-.78,1.5,1.23,2.75,2.93,4.32,3.29.8.18,2.16-2,2.89-2.77ZM44.74,257.8c-.69,2.67-1.37,5.34-2.36,9.19L49,258.82,44.58,258,40,253.22,35,260.56c1.84,1.11,3.29,2,4.63,2.82Zm76.11-8.28c-.75,3.18.14,6,3.43,6.4,1.63.18,4.87-2,5-3.37.34-2.83-1.79-4.66-5.1-4,1.42-4.13-1.41-6.2-4.08-8.34.19-1.07.71-3,.5-3.06-2.54-1-5.19-1.77-7.82-2.59,3-3.92-1.15-5.09-2.76-7.78l-6.44,4.46.88,1.55,5.92-1.89c-1.68,1.71-3.83,2.18-5.71,3.16-.86.45-1.21,1.89-1.79,2.89-1.33-.18-2.92-.92-3.93-.44-3.53,1.69-6.86,3.8-11.11,6.23,1.69,1.26,3.29,2.93,3.69,2.68,4-2.49,7.77-5.3,11.61-8l9.79-3c-.19.41-.27,1-.58,1.21-1.48,1.15-3.82,1.86-1.69,4.41,1.48,1.76,2.71,3.73,5.48,1.76a18,18,0,0,1,4-1.62l-5.4,4.78.47,1.11,6.77-1.75-6,4.8ZM62.07,265.88c-4.44-1.13-6.08,1.15-6.28,5.17-2.59-1.07-4.74,0-5.39,2.28-.41,1.48.83,3.42,1.35,5.17l-5.27-1.41L46,278.55l10.13,6.34,1-1.51-5.56-5.07c1.24.39,2.48.76,3.71,1.16,5,1.61,6.26.45,5.41-5l5.1-.29-6.45-5,.31-.48,6.59,2.7.59-1.37L61.9,265.7l6.45,2.39.75-1.4a16.59,16.59,0,0,0-11-5.22ZM36,245.8l4.65-8.93-4.9-3.09a43.81,43.81,0,0,0-3.86,5.68c-.85,1.77-1.05,3.84-1.54,5.78l5.82.39c-.16,1-.32,2-.27,1.7l6.74,5.23c.89-1.13,1.73-2.13,2.49-3.19,1.62-2.26,3.21-4.54,4.83-6.84l-7.35-4.3ZM136.18,275c-2.2-1.86-3.67-.69-5.41,1-3.12,3-6.51,5.66-10.56,9.13,1.53.78,3.94,3.13,5.91,2.8,4.92-.81,9.63-2.84,14.42-4.38-2.22-7-6-1-8.33-1.58,1.28-2.33,2.57-4.68,3.85-7.06l11.6.92-7.61-8.41C138.67,270.11,137.42,272.55,136.18,275ZM12.68,213.68c1.17.54,2.39,1,3.5,1.63,4,2.25,7.86,4.73,12,6.72,1.15.56,3.92.16,4.28-.59.6-1.26,0-3.18-.36-4.78a6.73,6.73,0,0,0-1.21-2l5.67.79A52.31,52.31,0,0,0,32.1,211c-1.53-1.24-3.45-2-5-3.16s-2.62-2.44-5-4.68L32.8,205c.75,2,1,4.23,1.87,4.51,1.95.62,4.22.24,6.35.27a32.6,32.6,0,0,0-1.54-5.15c-.52-1.09-1.7-1.87-2.59-2.79l7.52,2.85.64-1.63-14.11-10.2c4.19,2.19,8.39,4.35,12.55,6.59,2.72,1.47,2.69,1.53,4.72-.85l-.07,0c15.06,2.95,24.82-8.33,37.69-13L82,181l-6.47,2.9C74,179.2,72.6,177.69,69,178.85c-7.42,2.43-14.85,5.12-20.13,11.64L31.7,177.77l-5.26,10c1.62,1.79,3.15,3.49,4.67,5.19l-3.92.21-.27,1.13L37.09,202l-12-2.6,2.42-2.28c-2.88-1.62-5.19-4.35-8-1.06-1.8,2.13-2.83,4.91-4.32,7.62.77.87,1.82,2,2.86,3.19l-7,1,1.11,5.25C8.31,210,8.79,215.8,6.47,216c-.41,0-1.07,1.28-1,1.9a2.62,2.62,0,0,0,1.41,1.67c5.78,2.84,11.55,5.7,17.45,8.28,1.2.52,2.9-.1,4.38-.19l-.17-1.31Zm120-130c.07-4.25,1.22-8.69-2.16-13.42-1.44,2.28-2.61,3.66-3.27,5.26C124.07,83.2,121,90.87,118,98.61a12.39,12.39,0,0,0-.92,6.25c.21,1.11,2.51,2.7,3.74,2.6,3.75-.32,7.32-8.27,5.49-12.84-1.39,2.33-2.56,4.28-3.72,6.24l-1-.58,3.6-9.48,4.1,1.08c1-2,1.95-3.73,2.86-5.47-2,6.3-4,12.57-5.86,18.91-.43,1.48-.15,3.17-.19,4.77,1.07-1.12,2.63-2.06,3.12-3.39,1.72-4.65,3-9.45,4.55-14.17.57-1.76,1.23-3.48,1.85-5.22l1.2.28v19.15l-.82,0-.6-4.41-1.2-.18a64.05,64.05,0,0,0-2.09,8.26c-.14,1.14,1.08,2.45,1.69,3.68,1.11-.77,2.71-1.29,3.27-2.36,3.18-6,3.21-12.38,2.25-18.9-.32-2.12-.37-4.28-.54-6.42l.67,0,.72,1.92,1.57-.82-6.94-12.69ZM76.92,24.4c1,9.35,2,18.71,3.14,28.05.48,4.12,4,2.82,6.27,2.82,1.15,0,3-1.68,3.34-2.89,1.61-6.92,2.84-13.93,4.19-20.91,1.21-6.28.86-6.63-6-5.81L85.7,40.89,85,40.82,83.49,24.49H76.83c1.47-2.77,3.56-5.41,4.25-8.37A24.81,24.81,0,0,0,81,6.26C80.63,4.2,78.85.9,77.54.82c-2.6-.14-6.1.82-7.8,2.64-3.44,3.71-2.28,17.4.14,20.32-4.19,10.89-1,21.26-2,31.81L74.62,55c0-9-.11-17.6.11-26.18C74.76,27.33,76.16,25.87,76.92,24.4ZM94.64,218.86l4.76,6.36,6.46-4.4-2.6-1.48,1.29-3.6a16.79,16.79,0,0,0-3.86.44c-2.14.77-4.15,1.87-6.22,2.82,1.61-2.58,4.69-5.24,2-8.3-1.73-2-5.19-4.31-7.26-3.83-7.61,1.77-15,4.54-19.94,11.84l-4.71-6.48c6.89,1.07,21.38-7.76,28.49-12.67-1.41-1.55-3.54-2.85-4-4.59-1.4-5.37-4.9-4.77-8.45-3.27a85.89,85.89,0,0,0-11.47,5.94c-4.26,2.61-4.17,4.69-.12,7.77a7.27,7.27,0,0,1,1,1.32l-3.37,1.21c-1.42-2.47-2.63-4.57-4.41-7.68l-2.81,5.3c-5.78-2.42-5.27,3.36-8,6.06,7.27,4.45,14,9,21.13,12.76a10.21,10.21,0,0,0,12.17-1.31L81.61,219l-5,1.63-.66-1.21,6.13-3.93c2,2.34,3.73,4.28,5.25,6Zm59,34.34-2.38,2.52,3.93,3.2H149c5.85,4.9,5.85,4.9,9.45-1.87l-4.83-3.87c.86-1,1.71-2.07,2.6-3.15l-5.27-6.57a40.1,40.1,0,0,1-5.78,3.11c-1,.34-2.32-.38-3.5-.62.46-.94.67-2.25,1.43-2.75,2.86-1.9,5.9-3.53,9.12-5.41l8.44,11.1c4.66-2.9,9.4-5.55,13.8-8.69,3.44-2.44,4.49-6.15,3-10.18-3.11-8.47-9.83-11.43-17.86-7.31-7.51,3.85-14.78,8.2-21.89,12.75-5.57,3.58-7,8.07-4.92,12.59a12.36,12.36,0,0,0,14.8,7C149.62,254.52,151.65,253.82,153.65,253.2ZM78.89,110.55c-2.53,2.38-1,3.93,1,5.39l5.25-2,.65,2c-2.75.68-5.81,2.49-8.17,1.81-6-1.7-11.11-.46-16.27,2.27-7.3,3.85-7.45,4.24-3.61,10.82a7.39,7.39,0,0,1,.31.94c1,2.43,2.55,2.61,4.76,1.39,8.13-4.5,16.34-8.87,24.49-13.34,2.77-1.51,5.47-3.17,8.2-4.76l-1.72-2.31,3,4.35C87,122.48,77.5,127.43,68.3,132.84c-3.53,2.07-3,4.83,1.38,6.73l-5,2.17-2.35-6.22c-3.71,2-6,4.19-4.3,7.86,1.54,3.36,4.73,4.53,8,2.88,12.36-6.32,24.57-12.91,37.27-19.63l-4.1-5c3.07.41,5.5,1.77,8.1,2.61,1,.34,3.1,0,3.59-.81,2.46-3.84,4.56-7.91,7-12.35-2.24-.85-4.55-2.34-5.13-1.84-2.24,1.94-3.93,4.52-6,7.06l-6.38-3.2,3.32-6.42c-3.53-3-6.35-3.84-8.5,1.25-.44,1-2.6,2.43-3.17,2.13-4.6-2.41-8.75-.44-13,.82,2.26-1.61,4.61-3.12,6.76-4.87s3.86-3.56,5.78-5.36c-3-1.38-5.87-6.7-7.11-.91-1.8.1-3.6-.29-4.87.35-10.3,5.21-20.51,10.6-31.07,16.11l2.4,3.67C60.8,117.54,67.73,107.82,78.89,110.55Zm53.28,54.74c-4.85.39-9.53-.42-13,1.29-8.74,4.33-17,9.67-25.29,14.84-3.75,2.34-5,6.07-4,10.42,1.86,7.78,10.92,12.78,18,9,9-4.87,17.58-10.64,26.09-16.4,3.37-2.27,5-6.14,3-10.08-1.41-2.77-1-4.7.26-7.28,4.13-8.46,1.67-13.36-7-15.54C120.56,157.52,131.68,161.29,132.17,165.29Zm-72,64.42c1.82-2.6,3.4-4.85,5.88-8.41-5.29-1.42-9.59-3.25-14-3.58-5.17-.38-8.62,3-10.38,7.79a9,9,0,0,0,3.82,11.34c8,5.07,16,10.13,24.55,14.09,7.89,3.67,15.15-1,17-9.65a6.18,6.18,0,0,1,2.58-3.07c6.5-4.55,13.09-9,19.63-13.45a12.76,12.76,0,0,0,1.38-1.28l-.74-1.24-13.67,7c-3.36-5.45-4.1-5.73-9.54-2.81-2.66,1.43-5.11,3.25-7.7,4.93l-4.47-3.17-4.87,7.28c2.59,1.57,4.79,2.72,6.75,4.19.75.56.93,1.86,1.37,2.83-1.15.41-2.37,1.27-3.44,1.11a12.58,12.58,0,0,1-4-1.92c-6-3.5-12.09-6.93-18-10.65-1-.66-1.29-2.56-1.91-3.88,1.32-.2,2.79-.84,3.94-.48C56.23,227.21,57.88,228.45,60.16,229.71Zm13.13-60.93A41.69,41.69,0,0,1,76,173.06c2.45,5.07,5.78,6.55,11,3.47,2.39-1.42,5.26-2,7.85-3.12,10.33-4.36,20.63-8.78,31.35-13.35l-6-8-24,11.69-.46-.77,21.63-15.47c-2.21-3-4.21-5.66-6.26-8.41Zm63.94,51.9a89.07,89.07,0,0,1-8,4.47c-1.08.48-2.63-.1-4-.19A15.55,15.55,0,0,1,127,221.5a10.5,10.5,0,0,1,2.88-1.92c6-3.57,11.9-7.24,18-10.58,1.2-.65,3.12,0,4.7.08a22.79,22.79,0,0,1-2.56,3.66,29.35,29.35,0,0,1-4.09,2.84c1,1.51,1.7,2.8,2.57,4s1.83,2.18,2.85,3.38c1.88-1.2,3.44-2.13,4.92-3.17,7.31-5.12,8-10.17,2.47-17.08-3.3-4.11-9.61-5.14-15.45-1.9q-11.09,6.15-21.71,13.1c-5.86,3.84-7.39,8.54-5.14,13.46,2.68,5.87,8.45,8.8,14.81,6.81,4-1.25,7.68-3.55,11.79-5.51ZM58.73,7.89l-1.08-.45c-.87,1.37-2.34,2.68-2.5,4.13-1.14,10.26-2,20.54-3,30.82-.08.84-.25,1.68-.38,2.52H51l-.62-5.82c-4.16,3.82-10.29,5.06-10.59,12.42l7.63-4.41L48,48.17l-9.26,6.75v-9l-1.6-.25-4,19,1.53.62,4.67-2,1.43,2.79L66.15,54.54l-.44-3.3H59.24C57,31.83,57.38,21,60.59,18.39l.81,9.16c1.87-1.63,4-2.61,4.08-3.69.31-6.65.15-13.33.15-20-7.5.37-2.4,7.77-6.9,10.47Zm89.41,97.52a86.94,86.94,0,0,1-.64,9.84c-.52,3-1.11,8.15-2.72,8.59-5.77,1.61-3.52,6.47-4.77,8.29l3.07,6.78-8.52-.78c2-6,3.56-10.62,5.06-15.07-8.37-5.14-12.39-5.75-16.3-1.44a35.48,35.48,0,0,0-6.44,11c-1.6,4.19,0,7.92,4.29,9.92,5.11,2.4,10.26,4.73,15.49,6.85,3.88,1.57,7.45.06,8.69-3.53,1.57-4.57,1.91-9.58,2.63-14.43.33-2.2.12-4.49.46-6.69C149.43,118.26,150.81,111.83,148.14,105.41ZM99.57,3.51c-2.94,8.74.33,17.23-3.11,26.09-3.12,8-.66,18.2-.66,27.57,8.77,3,8.77,3,10.56-2.39-4.25-.85-6-3.17-3.91-7.63l5.8,1.29c1.3-3.22,1-5.66-2.68-6.59-4-1-3.58-3.53-2.64-6.74l6.69,2.12c2.17-7.33-4.27-11.49-6.86-17.58l6.47,1.23-6-8.94,1-.81,4.66,1.93C108.1,6.71,103.32,5.76,99.57,3.51Zm-58.95,127-16.86,13,2.81,5.35,7.78-2.08.31.81-7.52,5.27c2.28,2,4.2,5,5.63,4.74,7.07-1.07,14-3,21-4.61-1.29-5-3.66-6-7.59-4.19a35.12,35.12,0,0,1-5.94,1.62L40,149.7l8.75-5.1c-1.2-4.39-3.24-5.9-7.31-3.68-1.84,1-4.07,1.3-6.13,1.92l-.28-.72,9-5.71Zm47.6,21.15c-3.12-7.43-6.83.44-10.7-2.38l9.81-5.65,4.76,5.52c4.72-3,9.5-5.69,13.71-9.07,1.48-1.18,2.43-4.32,2-6.24-.68-3.26-4.18-3.62-6.52-2.44-9.55,4.84-19,10-28.21,15.41-1.39.82-2.52,4.61-1.79,5.86,1,1.66,4.08,3.24,6,3C80.89,155.05,84.3,153.15,88.22,151.65ZM76.61,90.91l.3-1.51c-1.46-.63-3.37-2.2-4.3-1.75q-14.28,7-28.22,14.64c-1.07.59-2.18,3.09-1.77,4,1.22,2.8,3.21,5.26,5.12,8.19L81.25,97.32l-3-4.13L52.65,106.05l-1-1.9ZM65.18,75.55c-3.18.94-5.35,1.3-7.25,2.21-5.23,2.51-10.39,5.18-15.48,8-1.56.86-3.49,2.07-4,3.54-.79,2.3-1.5,5.61-.4,7.28s5.05,2.94,6.74,2.17A229.92,229.92,0,0,0,68,86.43c1.54-.93,2.75-4.53,2.19-6.28C69.59,78.18,66.78,76.9,65.18,75.55Zm38.13,133.14,5.82,7.42c11.21-6.79,21.9-13.27,32.83-19.91l-5.86-8Zm-4.88-112c6.33-13.58,12.61-27,18.78-40.47.45-1,.06-2.4.06-3.61l-1.59-.29c-1.38,3.06-2.77,6.12-4.38,9.7-2.14-4.85-4.35-3.23-6-.32q-7.68,13.59-15,27.4c-.69,1.31-.48,3.09-.62,4.11ZM38.35,79.61l-.85-1.68,17.29-9.42L55.68,70,50.3,73.66l2.75,4.86c3-2.17,5.91-3.77,8-6.13a6.41,6.41,0,0,0,1-5.73A8.24,8.24,0,0,0,57,62.81c-1.88-.44-4.31.32-6.17,1.22a106.47,106.47,0,0,0-12.55,7.06c-2.09,1.41-4.44,3.54-5,5.77a10,10,0,0,0,1.47,7.65c.81,1.08,4.43.46,6.63-.05,1.84-.42,3.46-1.79,5.45-2.9L44.54,77c-1.38.71-2.23,1.22-3.13,1.6S39.37,79.26,38.35,79.61ZM57.52,180.75c2.07-1,4.06-1.85,5.91-2.92,4.27-2.48,4.89-6,1.9-9.85-2.7-3.49-6.17-4.41-10.16-2.81-3.53,1.42-7,3.08-10.39,4.77-4.2,2.08-5.11,5.27-2.79,9.37,2.79,4.93,7.18,5.71,12.47,2.28-.37-5.26-4.66-3.74-8.06-4C50.82,172.78,50.82,172.78,57.52,180.75Zm-19.29-54.9c-.64-5.19-2.39-10-6.4-9.91a17.68,17.68,0,0,0-11.93,5.64c-1.78,2.13-.37,7.36.5,11,.27,1.15,3.69,2.62,5.17,2.2A38.88,38.88,0,0,0,35.77,130C37.16,129.07,37.69,126.82,38.23,125.85ZM88.76,15.45c7.32-.11,8.51-1.34,8-7.72C96.31,1.66,92-.78,83.28.22c0,6.57.16,13.17-.06,19.76-.12,3.81,1.46,4.59,5,3.76C88.37,21,88.55,18.39,88.76,15.45Zm21,87.82,2.85-.18c4.63-10,9.32-20,13.83-30.09.55-1.23.2-2.86.27-4.31l-1.32-.14-2.2,4.67-.41-6.84a325.89,325.89,0,0,0-14.22,32.39C108.09,99.94,109.3,101.76,109.74,103.27ZM16,110.08l9-5.17,1,1.6c-2.22,1.44-4.35,3-6.67,4.29-3.74,2-4.2,4.61-2.05,8.21,3.82-2.09,7.65-3.8,11-6.21,1.41-1,2.73-3.72,2.39-5.27-.83-3.67-2.68-7.12-4.11-10.67C15.68,102.57,14.32,104.25,16,110.08ZM37.1,169.77,64.4,157l.16-1.9c-1.78-.89-4.07-3-5.26-2.46-8.48,3.59-16.74,7.7-25.27,11.75Zm77.67,79.16c-7.62-10.54-6-9.36-15-4.64-4.94,2.59-.38,4.87-.32,7.78L95,246.85c.34,8,4.64,10.62,10.45,7.43C108.46,252.62,111.44,250.84,114.77,248.93ZM104.5,262.45l9.89-5,.78,1.34-9.29,6.44c1.58,1.06,3.14,2.65,3.67,2.36,3.56-2,7.83-3.7,9.89-6.82.87-1.32-3-5.79-4.89-9L101.64,259ZM119,64.85l-1.77-.77L100.15,97.51c2.18,2.76,3.48,1.3,4.57-1,4.45-9.22,8.91-18.42,13.28-27.67A20.94,20.94,0,0,0,119,64.85ZM125,42.41l-2-.36c.23,1.45.45,2.89.67,4.33l-1.5.2a21.45,21.45,0,0,0-.49-4.79,17.09,17.09,0,0,0-2.72-4.88c-.28-.37-2.45,0-2.55.32-.8,2.69-2.69,6.56-1.58,8,2.12,2.73,6,4.1,9.18,6Q124.45,46.84,125,42.41ZM23.39,86.82c5.07-5.93,5.07-5.93,3.48-9.93-6.59,6.8-8.29,15.54-11.43,24.06l11.2-8.63Zm47,177.73c5.85-6.3,5.25-8.12-3.37-12.87-.81,1-1.54,2.08-2.43,3-1.19,1.24-2.5,2.36-4.39,4.11Zm62.39,7.17c-2.46-4.54-5.31-3.19-7.86-1.67-2.21,1.32-4,3.27-6.2,4.71-4,2.64-4.06,3.77-.7,6.85ZM59,246.12l-8.26,11.61,1.13.94,2.77-1.3.55,3.47,1.17.47L64,250.77l-.85-.88-3,1.09Zm-33.72-3.63,1.5,1,7.42-10.58-1.15-1-3.74,2.74,1-4.23-1.35-.61-7.29,10.47,1.36,1c1.25-1.11,2.51-2.21,4.59-4.06Zm125-51.32-5.85-7.66-5.72,3.8c2,2.73,3.72,5,5.52,7.38ZM110.43,270.8c3.06,4,4.46,3.54,14.43-3.88-.73-2.83-2.07-3.9-4.89-2C117,266.9,113.82,268.72,110.43,270.8ZM23.91,234.05l.81-1.61C20,226.82,9.92,221.58,7,223.85Zm25.9,22.29,5.45-10.82-1.35-1c-4.73,1.13-6.38,5.95-9.92,8.45Zm97.91,4.37c-1.95,2.51-3.8,4.16-4.48,6.19-.23.68,3.11,3.65,3.77,3.34a10.25,10.25,0,0,0,4.65-4.62C152,264.94,149.61,263,147.72,260.71ZM34.46,112.11l6.82-4.57c-1-1.61-1.89-4.25-3.66-5.21-1.11-.6-5.13,1.26-5.17,2.14C32.34,106.89,33.64,109.37,34.46,112.11ZM40,43.69c8.64-5.56,9.87-8.43,6.07-14.75ZM23.35,253.45A61.42,61.42,0,0,0,26.48,246c.11-.36-3-2.35-3.37-2.06a57.4,57.4,0,0,0-5.65,5.94ZM44.29,127.18l3.86-1.66,1.77,5.07c2.93-3.84,1.09-6.31-1.2-7.26-1.66-.7-4.2.67-6.35,1.12A67,67,0,0,0,44,131.06c.12.35,1.68.22,2.57.32Zm99.94-34.66-1.35-.16-3.78,24.09,2.23.27ZM52.92,134l3.31,3,.89-.62-3.46-6.12-8.35,3.94,3.61,5.91,1-.5-.92-4.1,3.88,2.44ZM33.4,259.76c.48-3.49,6.06-5.29,2.31-8.83-2.88-2.72-4.5.85-6,2.87C27,257.55,30.6,258,33.4,259.76ZM35.33,93.29l-1.4-1.09c-2.85,1.1-5.92,2.3-4.57,6.38.49,1.47,2.61,3.51,3.76,3.38,1.52-.19,2.83-2.24,4.22-3.49l-1.05-1.25L31,98.52C32.66,96.49,34,94.89,35.33,93.29ZM48,265.4l-1.57,1c1,1.07,2.7,3.19,2.94,3a26.34,26.34,0,0,0,5.42-4.57c.41-.46,0-2.57-.51-2.81-7-3.1-4.16,2.59-4.31,5.89Zm95.08-145.94,2,.08V97.85C144.49,103.86,143.77,111.66,143.05,119.46ZM127.39,48.32c-1.73,6.45-1.47,10.94,5,13.52Zm-88.24,218c-3.61-4.49-4.78-.92-6.09.9-.46.64-.23,2.72.28,3C37.77,272.42,36.25,266.71,39.15,266.27Zm-9.83-177-.74-3.3-1.4.25,1.25,8.26,5.7-5-1-1.27Zm84-74.54-1.4.1c-.07,3.25-1.85,6.9,3.13,9C114.48,20.75,113.91,17.71,113.33,14.68Z"/><path class="cls-1" d="M0,223.76c1.2,0,2.67-.44,3.56.09,6.25,3.66,12.38,7.53,18.51,11.31-3.18,6.36-3.38,6.44-8.74,3.24-2.7-1.62-5.59-3-8-5C4.13,232.3,4,230,3,228.52a15.87,15.87,0,0,0-3-2.77Z"/><path class="cls-1" d="M48.91,291.53c-3.66-2.57-6.61-5.48-4.6-11.56l10.15,6.55-2.56,5Z"/><path class="cls-1" d="M79,110.87c4.26-1.26,8.41-3.23,13-.82.57.3,2.73-1.1,3.17-2.13,2.15-5.09,5-4.3,8.5-1.25l-3.32,6.42,6.38,3.2c2.06-2.54,3.75-5.12,6-7.06.58-.5,2.89,1,5.13,1.84-2.48,4.44-4.58,8.51-7,12.35-.49.76-2.55,1.15-3.59.81-2.6-.84-5-2.2-8.1-2.61l4.1,5c-12.7,6.72-24.91,13.31-37.27,19.63-3.23,1.65-6.42.48-8-2.88-1.68-3.67.59-5.81,4.3-7.86l2.35,6.22,5-2.17c-4.42-1.9-4.91-4.66-1.38-6.73,9.2-5.41,18.67-10.36,28.42-15.7l-3-4.35,1.72,2.31c-2.73,1.59-5.43,3.25-8.2,4.76-8.15,4.47-16.36,8.84-24.49,13.34-2.21,1.22-3.75,1-4.76-1.39a7.39,7.39,0,0,0-.31-.94c-3.84-6.58-3.69-7,3.61-10.82,5.16-2.73,10.29-4,16.27-2.27,2.36.68,5.42-1.13,8.17-1.81l-.65-2-5.25,2c-2-1.46-3.49-3-1-5.39ZM74.72,135l1.18,1.76q8.28-4.7,16.58-9.37l-1.06-1.85Z"/><path class="cls-1" d="M132.17,165.29c-.49-4-11.61-7.77-1.85-13.78,8.67,2.18,11.13,7.08,7,15.54-1.26,2.58-1.67,4.51-.26,7.28,2,3.94.33,7.81-3,10.08-8.51,5.76-17.07,11.53-26.09,16.4-7.07,3.81-16.13-1.19-18-9-1-4.35.23-8.08,4-10.42,8.3-5.17,16.55-10.51,25.29-14.84C122.64,164.87,127.32,165.68,132.17,165.29Zm-4,11.2-.25-1.61c-1.67,0-3.7-.62-4.93.1-6.87,4-13.61,8.31-20.24,12.73-1.2.8-1.69,2.67-2.51,4,1.61-.06,3.54.44,4.76-.28,7-4.09,13.91-8.45,20.8-12.78A17.47,17.47,0,0,0,128.13,176.49Z"/><path class="cls-1" d="M60.16,229.71c-2.28-1.26-3.93-2.5-5.77-3.07-1.15-.36-2.62.28-3.94.48.62,1.32.87,3.22,1.91,3.88,5.89,3.72,12,7.15,18,10.65a12.58,12.58,0,0,0,4,1.92c1.07.16,2.29-.7,3.44-1.11-.44-1-.62-2.27-1.37-2.83-2-1.47-4.16-2.62-6.75-4.19l4.87-7.28L79,231.33c2.59-1.68,5-3.5,7.7-4.93,5.44-2.92,6.18-2.64,9.54,2.81l13.67-7,.74,1.24a12.76,12.76,0,0,1-1.38,1.28c-6.54,4.48-13.13,8.9-19.63,13.45a6.18,6.18,0,0,0-2.58,3.07c-1.87,8.61-9.13,13.32-17,9.65-8.53-4-16.59-9-24.55-14.09a9,9,0,0,1-3.82-11.34c1.76-4.77,5.21-8.17,10.38-7.79,4.4.33,8.7,2.16,14,3.58C63.56,224.86,62,227.11,60.16,229.71Z"/><path class="cls-1" d="M153.68,253.19c-2,.63-4.06,1.33-6.11,1.89a12.36,12.36,0,0,1-14.8-7c-2.08-4.52-.65-9,4.92-12.59,7.11-4.55,14.38-8.9,21.89-12.75,8-4.12,14.75-1.16,17.86,7.31,1.48,4,.43,7.74-3,10.18-4.4,3.14-9.14,5.79-13.8,8.69l-8.44-11.1c-3.22,1.88-6.26,3.51-9.12,5.41-.76.5-1,1.81-1.43,2.75,1.18.24,2.53,1,3.5.62a40.1,40.1,0,0,0,5.78-3.11l5.27,6.57c-.89,1.08-1.74,2.12-2.6,3.15Zm6-19.68c2.78,5.25,5.19,1.26,7.43.36.67-.27.76-2,1.11-3.05a61.25,61.25,0,0,0-6.07.92C161.3,231.94,160.62,232.8,159.67,233.51Z"/><path class="cls-1" d="M73.29,168.78l37.8-29.69c2,2.75,4,5.43,6.26,8.41L95.72,163l.46.77,24-11.69,6,8c-10.72,4.57-21,9-31.35,13.35-2.59,1.1-5.46,1.7-7.85,3.12-5.17,3.08-8.5,1.6-11-3.47A41.69,41.69,0,0,0,73.29,168.78Z"/><path class="cls-1" d="M137.23,220.68l5.76,8c-4.11,2-7.79,4.26-11.79,5.51-6.36,2-12.13-.94-14.81-6.81-2.25-4.92-.72-9.62,5.14-13.46q10.6-6.94,21.71-13.1c5.84-3.24,12.15-2.21,15.45,1.9,5.56,6.91,4.84,12-2.47,17.08-1.48,1-3,2-4.92,3.17-1-1.2-2-2.24-2.85-3.38s-1.6-2.48-2.57-4a29.35,29.35,0,0,0,4.09-2.84,22.79,22.79,0,0,0,2.56-3.66c-1.58-.06-3.5-.73-4.7-.08-6.1,3.34-12,7-18,10.58A10.5,10.5,0,0,0,127,221.5,15.55,15.55,0,0,0,125.3,225c1.33.09,2.88.67,4,.19A89.07,89.07,0,0,0,137.23,220.68Z"/><path class="cls-1" d="M94.62,218.87l-7.32,2.64c-1.52-1.73-3.21-3.67-5.25-6l-6.13,3.93.66,1.21,5-1.63,3.06,4.06a10.21,10.21,0,0,1-12.17,1.31c-7.12-3.79-13.86-8.31-21.13-12.76,2.76-2.7,2.25-8.48,8-6.06l2.81-5.3c1.78,3.11,3,5.21,4.41,7.68L70,206.73a7.27,7.27,0,0,0-1-1.32c-4-3.08-4.14-5.16.12-7.77a85.89,85.89,0,0,1,11.47-5.94c3.55-1.5,7-2.1,8.45,3.27.46,1.74,2.59,3,4,4.59-7.11,4.91-21.6,13.74-28.49,12.67l4.71,6.48c4.92-7.3,12.33-10.07,19.94-11.84,2.07-.48,5.53,1.84,7.26,3.83,2.67,3.06-.41,5.72-2,8.3ZM72.85,202.19l1,1.86L85,198.15l-1-1.89Q78.41,199.21,72.85,202.19Z"/><path class="cls-1" d="M58.73,7.89v6.43c4.5-2.7-.6-10.1,6.9-10.47,0,6.68.16,13.36-.15,20-.06,1.08-2.21,2.06-4.08,3.69l-.81-9.16C57.38,21,57,31.83,59.24,51.24h6.47l.44,3.3L40.78,66.08l-1.43-2.79-4.67,2-1.53-.62,4-19,1.6.25v9L48,48.17l-.61-1.07-7.63,4.41c.3-7.36,6.43-8.6,10.59-12.42L51,44.91h.79c.13-.84.3-1.68.38-2.52,1-10.28,1.84-20.56,3-30.82.16-1.45,1.63-2.76,2.5-4.13Z"/><path class="cls-1" d="M148.14,105.41c2.67,6.42,1.29,12.85.3,19.3-.34,2.2-.13,4.49-.46,6.69-.72,4.85-1.06,9.86-2.63,14.43-1.24,3.59-4.81,5.1-8.69,3.53-5.23-2.12-10.38-4.45-15.49-6.85-4.26-2-5.89-5.73-4.29-9.92a35.48,35.48,0,0,1,6.44-11c3.91-4.31,7.93-3.7,16.3,1.44-1.5,4.45-3.05,9.07-5.06,15.07l8.52.78L140,132.13c1.25-1.82-1-6.68,4.77-8.29,1.61-.44,2.2-5.54,2.72-8.59A86.94,86.94,0,0,0,148.14,105.41Zm-17.08,24.08-6.6.47c.59,1.22.85,2.94,1.83,3.58C129.19,135.42,130.34,133.59,131.06,129.49Z"/><path class="cls-1" d="M31.12,193l-4.68-5.19,5.26-10,17.21,12.72C54.19,184,61.62,181.28,69,178.85c3.56-1.16,5,.35,6.44,5.09L82,181l3.88,4.58c-12.87,4.66-22.63,15.94-37.67,13,0-1.19.36-3.08-.19-3.41-4-2.38-8.16-4.45-12.28-6.61l-.81,1.35c1.51,1,3,2.14,4.53,3.13,2.92,1.87,5.87,3.69,8.8,5.52-2,2.38-2,2.32-4.72.85-4.16-2.24-8.36-4.4-12.55-6.59Zm25.49-2.48,1,2.3,13.42-6.49-1-2.07Z"/><path class="cls-1" d="M99.57,3.51c3.75,2.25,8.53,3.2,9.34,9.55l-4.66-1.93-1,.81,6,8.94-6.47-1.23c2.59,6.09,9,10.25,6.86,17.58l-6.69-2.12c-.94,3.21-1.34,5.75,2.64,6.74,3.71.93,4,3.37,2.68,6.59l-5.8-1.29c-2.06,4.46-.34,6.78,3.91,7.63-1.79,5.38-1.79,5.38-10.56,2.39,0-9.37-2.46-19.55.66-27.57C99.9,20.74,96.63,12.25,99.57,3.51Z"/><path class="cls-1" d="M76.92,24.4c-.76,1.47-2.16,2.93-2.19,4.42C74.51,37.4,74.62,46,74.62,55l-6.72.59c.93-10.55-2.21-20.92,2-31.81-2.42-2.92-3.58-16.61-.14-20.32,1.7-1.82,5.2-2.78,7.8-2.64C78.85.9,80.63,4.2,81,6.26a24.81,24.81,0,0,1,.06,9.86c-.69,3-2.78,5.6-4.25,8.37Zm-3.27-4.31,1.55,0V4.79l-1.55,0Z"/><path class="cls-1" d="M40.62,130.5l3.43,5.91-9,5.71.28.72c2.06-.62,4.29-.91,6.13-1.92,4.07-2.22,6.11-.71,7.31,3.68L40,149.7l.23.75a35.12,35.12,0,0,0,5.94-1.62c3.93-1.82,6.3-.81,7.59,4.19-7,1.62-13.94,3.54-21,4.61-1.43.22-3.35-2.73-5.63-4.74l7.52-5.27-.31-.81-7.78,2.08-2.81-5.35Z"/><path class="cls-1" d="M88.22,151.65c-3.92,1.5-7.33,3.4-10.94,4-1.89.29-5-1.29-6-3-.73-1.25.4-5,1.79-5.86,9.22-5.45,18.66-10.57,28.21-15.41,2.34-1.18,5.84-.82,6.52,2.44.4,1.92-.55,5.06-2,6.24-4.21,3.38-9,6-13.71,9.07l-4.76-5.52-9.81,5.65C81.39,152.09,85.1,144.22,88.22,151.65Z"/><path class="cls-1" d="M76.61,90.91,51.67,104.15l1,1.9L78.29,93.19l3,4.13L47.74,114.53c-1.91-2.93-3.9-5.39-5.12-8.19-.41-1,.7-3.46,1.77-4q13.95-7.64,28.22-14.64c.93-.45,2.84,1.12,4.3,1.75Z"/><path class="cls-1" d="M65.18,75.55c1.6,1.35,4.41,2.63,5,4.6.56,1.75-.65,5.35-2.19,6.28A229.92,229.92,0,0,1,44.79,98.71c-1.69.77-5.68-.57-6.74-2.17s-.39-5,.4-7.28c.51-1.47,2.44-2.68,4-3.54,5.09-2.78,10.25-5.45,15.48-8C59.83,76.85,62,76.49,65.18,75.55Zm-1.47,8.11-1.15-1.93L42.78,91.94l1,1.92Z"/><path class="cls-1" d="M76.83,24.49h6.66L85,40.82l.72.07,2.2-15.23c6.82-.82,7.17-.47,6,5.81-1.35,7-2.58,14-4.19,20.91-.29,1.21-2.19,2.89-3.34,2.89-2.29,0-5.79,1.3-6.27-2.82C79,43.11,78,33.75,76.92,24.4Z"/><path class="cls-1" d="M103.31,208.69l32.79-20.48,5.86,8c-10.93,6.64-21.62,13.12-32.83,19.91Z"/><path class="cls-1" d="M98.43,96.71l-8.69-3.48c.14-1-.07-2.8.62-4.11q7.29-13.8,15-27.4c1.64-2.91,3.85-4.53,6,.32,1.61-3.58,3-6.64,4.38-9.7l1.59.29c0,1.21.39,2.61-.06,3.61C111,69.71,104.76,83.13,98.43,96.71Zm10-28.5-1.68-.9-10.59,20,1.57.82Z"/><path class="cls-1" d="M38.35,79.61c1-.35,2.07-.64,3.06-1.06s1.75-.89,3.13-1.6l2.23,4.61c-2,1.11-3.61,2.48-5.45,2.9-2.2.51-5.82,1.13-6.63.05a10,10,0,0,1-1.47-7.65c.59-2.23,2.94-4.36,5-5.77A106.47,106.47,0,0,1,50.8,64c1.86-.9,4.29-1.66,6.17-1.22a8.24,8.24,0,0,1,5.1,3.85,6.41,6.41,0,0,1-1,5.73c-2.12,2.36-5.08,4-8,6.13L50.3,73.66,55.68,70l-.89-1.51L37.5,77.93Z"/><path class="cls-1" d="M57.52,180.75c-6.7-8-6.7-8-11.12-3.19,3.4.29,7.69-1.23,8.06,4-5.29,3.43-9.68,2.65-12.47-2.28-2.32-4.1-1.41-7.29,2.79-9.37,3.42-1.69,6.86-3.35,10.39-4.77,4-1.6,7.46-.68,10.16,2.81,3,3.87,2.37,7.37-1.9,9.85C61.58,178.9,59.59,179.74,57.52,180.75Z"/><path class="cls-1" d="M79,110.87l-.1-.32c-11.16-2.73-18.09,7-28,9.31l-2.4-3.67c10.56-5.51,20.77-10.9,31.07-16.11,1.27-.64,3.07-.25,4.87-.35,1.24-5.79,4.06-.47,7.11.91-1.92,1.8-3.75,3.7-5.78,5.36S81.25,109.26,79,110.87Z"/><path class="cls-1" d="M38.23,125.85c-.54,1-1.07,3.22-2.46,4.11a38.88,38.88,0,0,1-10.2,4.82c-1.48.42-4.9-1.05-5.17-2.2-.87-3.64-2.28-8.87-.5-11a17.68,17.68,0,0,1,11.93-5.64C35.84,115.87,37.59,120.66,38.23,125.85Zm-4.81-2.17-1.14-2.14-10.74,5.68,1.11,2.09Z"/><path class="cls-1" d="M88.76,15.45c-.21,2.94-.39,5.54-.59,8.29-3.49.83-5.07.05-5-3.76.22-6.59.06-13.19.06-19.76,8.71-1,13,1.44,13.5,7.51C97.27,14.11,96.08,15.34,88.76,15.45Z"/><path class="cls-1" d="M132.11,86.41c-.91,1.74-1.82,3.47-2.86,5.47l-4.1-1.08-3.6,9.48,1,.58c1.16-2,2.33-3.91,3.72-6.24,1.83,4.57-1.74,12.52-5.49,12.84-1.23.1-3.53-1.49-3.74-2.6a12.39,12.39,0,0,1,.92-6.25c2.94-7.74,6.06-15.41,9.23-23.06.66-1.6,1.83-3,3.27-5.26,3.38,4.73,2.23,9.17,2.16,13.42C132.48,84.61,132.3,85.51,132.11,86.41Z"/><path class="cls-1" d="M36.89,201.82c.89.92,2.07,1.7,2.59,2.79A32.6,32.6,0,0,1,41,209.76c-2.13,0-4.4.35-6.35-.27-.88-.28-1.12-2.56-1.87-4.51l-10.7-1.86c2.35,2.24,3.54,3.61,5,4.68s3.5,1.92,5,3.16a52.31,52.31,0,0,1,4.43,4.5l-5.67-.79.17.2-13.16-8.12.19.13-2.86-3.19c1.49-2.71,2.52-5.49,4.32-7.62,2.8-3.29,5.11-.56,8,1.06l-2.42,2.28,12,2.59Z"/><path class="cls-1" d="M132.11,86.41c.19-.9.37-1.8.56-2.7l2.09-8.85,6.94,12.69-1.57.82-.72-1.92-.67,0c.17,2.14.22,4.3.54,6.42,1,6.52.93,12.94-2.25,18.9-.56,1.07-2.16,1.59-3.27,2.36-.61-1.23-1.83-2.54-1.69-3.68a64.05,64.05,0,0,1,2.09-8.26l1.2.18.6,4.41.82,0V87.59l-1.2-.28c-.62,1.74-1.28,3.46-1.85,5.22-1.51,4.72-2.83,9.52-4.55,14.17-.49,1.33-2.05,2.27-3.12,3.39,0-1.6-.24-3.29.19-4.77C128.09,99,130.14,92.71,132.11,86.41Z"/><path class="cls-1" d="M109.74,103.27c-.44-1.51-1.65-3.33-1.2-4.5a325.89,325.89,0,0,1,14.22-32.39l.41,6.84,2.2-4.67,1.32.14c-.07,1.45.28,3.08-.27,4.31-4.51,10.07-9.2,20.07-13.83,30.09Z"/><path class="cls-1" d="M16,110.08c-1.69-5.83-.33-7.51,10.48-13.22,1.43,3.55,3.28,7,4.11,10.67.34,1.55-1,4.26-2.39,5.27-3.33,2.41-7.16,4.12-11,6.21-2.15-3.6-1.69-6.21,2.05-8.21,2.32-1.25,4.45-2.85,6.67-4.29l-1-1.6Z"/><path class="cls-1" d="M37.1,169.77,34,164.38c8.53-4,16.79-8.16,25.27-11.75,1.19-.51,3.48,1.57,5.26,2.46L64.4,157Z"/><path class="cls-1" d="M114.77,248.93c-3.33,1.91-6.31,3.69-9.34,5.35-5.81,3.19-10.11.55-10.45-7.43l4.5,5.22c-.06-2.91-4.62-5.19.32-7.78C108.8,239.57,107.15,238.39,114.77,248.93Z"/><path class="cls-1" d="M12.13,213.17,11,207.92l7-1-.19-.13L24,211.87c-2.21,3.62-.39,5.34,3.75,6.3l-2.46-3.39.53-1.06L31,214.87l-.17-.2a6.73,6.73,0,0,1,1.21,2c.33,1.6,1,3.52.36,4.78-.36.75-3.13,1.15-4.28.59-4.11-2-8-4.47-12-6.72-1.11-.63-2.33-1.09-3.5-1.63A4.43,4.43,0,0,1,12.13,213.17Z"/><path class="cls-1" d="M104.5,262.45,101.64,259l12.91-7.26c1.86,3.26,5.76,7.73,4.89,9-2.06,3.12-6.33,4.86-9.89,6.82-.53.29-2.09-1.3-3.67-2.36l9.29-6.44-.78-1.34Z"/><path class="cls-1" d="M136.08,274.9l-3.87,7c2.31.62,6.11-5.43,8.33,1.58-4.79,1.54-9.5,3.57-14.42,4.38-2,.33-4.38-2-5.91-2.8,4.05-3.47,7.44-6.16,10.56-9.13,1.74-1.66,3.21-2.83,5.41-1Z"/><path class="cls-1" d="M12.13,213.17a4.43,4.43,0,0,0,.55.51l15.86,12.63.17,1.31c-1.48.09-3.18.71-4.38.19-5.9-2.58-11.67-5.44-17.45-8.28a2.62,2.62,0,0,1-1.41-1.67c-.07-.62.59-1.87,1-1.9C8.79,215.8,8.31,210,12.13,213.17Z"/><path class="cls-1" d="M119,64.85a20.94,20.94,0,0,1-1,4c-4.37,9.25-8.83,18.45-13.28,27.67-1.09,2.27-2.39,3.73-4.57,1l17.09-33.43Z"/><path class="cls-1" d="M36,245.81l6.61-7.58,7.35,4.3c-1.62,2.3-3.21,4.58-4.83,6.84-.76,1.06-1.6,2.06-2.49,3.19l-6.74-5.23c-.05.33.11-.68.27-1.7Z"/><path class="cls-1" d="M125,42.41q-.49,4.43-1,8.85c-3.16-1.93-7.06-3.3-9.18-6-1.11-1.44.78-5.31,1.58-8,.1-.36,2.27-.69,2.55-.32a17.09,17.09,0,0,1,2.72,4.88,21.45,21.45,0,0,1,.49,4.79l1.5-.2c-.22-1.44-.44-2.88-.67-4.33Z"/><path class="cls-1" d="M23.39,86.82l3.25,5.5L15.44,101c3.14-8.52,4.84-17.26,11.43-24.06C28.46,80.89,28.46,80.89,23.39,86.82Z"/><path class="cls-1" d="M70.4,264.55l-10.19-5.76c1.89-1.75,3.2-2.87,4.39-4.11.89-.92,1.62-2,2.43-3C75.65,256.43,76.25,258.25,70.4,264.55Z"/><path class="cls-1" d="M132.79,271.72,118,281.61c-3.36-3.08-3.27-4.21.7-6.85,2.16-1.44,4-3.39,6.2-4.71C127.48,268.53,130.33,267.18,132.79,271.72Z"/><path class="cls-1" d="M59,246.12,60.08,251l3-1.09.85.88-7.64,10.54-1.17-.47-.55-3.47-2.77,1.3-1.13-.94Z"/><path class="cls-1" d="M51.73,278.48c-.5-1.73-1.74-3.67-1.33-5.15.65-2.31,2.8-3.35,5.39-2.28l4.89,3.46c.85,5.41-.41,6.57-5.41,5-1.23-.4-2.47-.77-3.71-1.16Z"/><path class="cls-1" d="M36.12,245.63l-5.82-.39c.49-1.94.69-4,1.54-5.78a43.81,43.81,0,0,1,3.86-5.68l4.9,3.09L36,245.8Z"/><path class="cls-1" d="M103.18,237.45c-3.84,2.72-7.63,5.53-11.61,8-.4.25-2-1.42-3.69-2.68,4.25-2.43,7.58-4.54,11.11-6.23,1-.48,2.6.26,3.93.44A3.3,3.3,0,0,0,103.18,237.45Z"/><path class="cls-1" d="M25.23,242.49l2.36-5.29c-2.08,1.85-3.34,3-4.59,4.06l-1.36-1,7.29-10.47,1.35.61-1,4.23L33,231.85l1.15,1-7.42,10.58Z"/><path class="cls-1" d="M150.18,191.17l-6.05,3.52c-1.8-2.41-3.47-4.65-5.52-7.38l5.72-3.8Z"/><path class="cls-1" d="M103.18,237.45a3.3,3.3,0,0,1-.26-.45c.58-1,.93-2.44,1.79-2.89,1.88-1,4-1.45,5.71-3.16l-5.92,1.89-.88-1.55,6.44-4.46c1.61,2.69,5.73,3.86,2.76,7.78l.16-.17Z"/><path class="cls-1" d="M30.94,192.83,45.05,203l-.64,1.63-7.52-2.85.2.18-10.17-7.68.27-1.13,3.92-.21Z"/><path class="cls-1" d="M110.43,270.8c3.39-2.08,6.53-3.9,9.54-5.9,2.82-1.88,4.16-.81,4.89,2C114.89,274.34,113.49,274.79,110.43,270.8Z"/><path class="cls-1" d="M112.82,234.61c2.63.82,5.28,1.57,7.82,2.59.21.09-.31,2-.51,3.07l.07-.08a18.83,18.83,0,0,0-4,1.64c-2.77,2-4,0-5.48-1.76-2.13-2.55.21-3.26,1.69-4.41.31-.25.39-.8.59-1.22Z"/><path class="cls-1" d="M23.91,234.05,7,223.85c3-2.27,13.07,3,17.76,8.59Z"/><path class="cls-1" d="M60.68,274.51l-4.89-3.46c.2-4,1.84-6.3,6.28-5.17l-.16-.17,4.91,4.4-.59,1.37-6.59-2.7-.31.48,6.45,5Z"/><path class="cls-1" d="M49.81,256.34,44,253c3.54-2.5,5.19-7.32,9.92-8.45l1.35,1Z"/><path class="cls-1" d="M147.72,260.71c1.89,2.26,4.27,4.23,3.94,4.91a10.25,10.25,0,0,1-4.65,4.62c-.66.31-4-2.66-3.77-3.34C143.92,264.87,145.77,263.22,147.72,260.71Z"/><path class="cls-1" d="M94.47,219c2.07-.95,4.08-2.05,6.22-2.82a16.79,16.79,0,0,1,3.86-.44l-1.29,3.6,2.6,1.48-6.46,4.4c-1.57-2.1-3.16-4.23-4.77-6.36Z"/><path class="cls-1" d="M34.46,112.11c-.82-2.74-2.12-5.22-2-7.64,0-.88,4.06-2.74,5.17-2.14,1.77,1,2.63,3.6,3.66,5.21Z"/><path class="cls-1" d="M124.22,248.6c3.31-.71,5.44,1.12,5.1,4-.17,1.38-3.41,3.55-5,3.37-3.29-.36-4.18-3.22-3.43-6.4Z"/><path class="cls-1" d="M40,43.69l6.07-14.75C49.87,35.26,48.64,38.13,40,43.69Z"/><path class="cls-1" d="M23.35,253.45l-5.89-3.59a57.4,57.4,0,0,1,5.65-5.94c.35-.29,3.48,1.7,3.37,2.06A61.42,61.42,0,0,1,23.35,253.45Z"/><path class="cls-1" d="M44.72,257.82l-5.13,5.56c-1.34-.82-2.79-1.71-4.63-2.82L40,253.22,44.58,258Z"/><path class="cls-1" d="M44.29,127.18l2.26,4.2c-.89-.1-2.45,0-2.57-.32a67,67,0,0,1-1.61-6.61c2.15-.45,4.69-1.82,6.35-1.12,2.29,1,4.13,3.42,1.2,7.26l-1.77-5.07Z"/><path class="cls-1" d="M144.23,92.52l-2.9,24.2-2.23-.27,3.78-24.09Z"/><path class="cls-1" d="M52.92,134v4L49,135.47l.92,4.1-1,.5-3.61-5.91,8.35-3.94,3.46,6.12-.89.62Z"/><path class="cls-1" d="M124.22,248.6l-3.37.92-4.84-.37,6-4.8-6.77,1.75-.47-1.11,5.41-4.79-.06.07C122.81,242.4,125.64,244.47,124.22,248.6Z"/><path class="cls-1" d="M33.4,259.76c-2.8-1.78-6.4-2.21-3.66-6,1.47-2,3.09-5.59,6-2.87C39.46,254.47,33.88,256.27,33.4,259.76Z"/><path class="cls-1" d="M153.59,253.18l4.83,3.88c-3.6,6.76-3.6,6.76-9.45,1.86h6.23l-3.93-3.2c.88-.93,1.63-1.73,2.4-2.53Z"/><path class="cls-1" d="M35.33,93.29c-1.34,1.6-2.67,3.2-4.35,5.23l5.31-1.3,1.05,1.25c-1.39,1.25-2.7,3.3-4.22,3.49-1.15.13-3.27-1.91-3.76-3.38C28,94.5,31.08,93.3,33.93,92.2Z"/><path class="cls-1" d="M48,265.4l2,2.53c.15-3.3-2.69-9,4.31-5.89.53.24.92,2.35.51,2.81a26.34,26.34,0,0,1-5.42,4.57c-.24.15-1.92-2-2.94-3Z"/><path class="cls-1" d="M136.18,275c1.24-2.45,2.49-4.89,3.87-7.61l7.61,8.41c-4.7-.37-8.15-.65-11.59-.91Z"/><path class="cls-1" d="M135.62,260l-3.21-.26c-.73.75-2.09,2.95-2.89,2.77-1.57-.36-2.82-2.06-4.32-3.29,4.45-2.86,8.28-6.5,10.37.78Z"/><path class="cls-1" d="M143.05,119.46c.72-7.8,1.44-15.6,2-21.61v21.69Z"/><path class="cls-1" d="M135.57,260l3.55,4.24a29.77,29.77,0,0,1-3.35,3.48c-.69.49-2.1,1-2.48.7a29.54,29.54,0,0,1-3.39-3.9l1.08-1,2.17,1.54c.74-1.54,1.59-3.32,2.46-5.11Z"/><path class="cls-1" d="M45.36,116.87c-2.13.12-4.25.35-6.37.32a9.8,9.8,0,0,1-2.76-.87,7.77,7.77,0,0,1,1.26-2.25c1.35-1.18,2.89-2.15,5-3.64L45.21,117Z"/><path class="cls-1" d="M46.17,205.9c2-5.74,3-6.05,8.48-1.26l-5.83,3.14Z"/><path class="cls-1" d="M127.39,48.32l5,13.52C125.92,59.26,125.66,54.77,127.39,48.32Z"/><path class="cls-1" d="M62.07,265.88l-4-4.41a16.59,16.59,0,0,1,11,5.22l-.75,1.4-6.45-2.38Z"/><path class="cls-1" d="M38.58,217.34c.19-.79.13-2,.63-2.3a10.34,10.34,0,0,1,4.34-1.79c.44,0,1.1,2.16,1.66,3.33a29.76,29.76,0,0,1-4.45,1.63c-.65.13-1.48-.6-2.22-.94Z"/><path class="cls-1" d="M51.56,278.31l5.56,5.07-1,1.51L46,278.55l.52-1.46,5.26,1.4Z"/><path class="cls-1" d="M46.17,205.9l2.65,1.88-.69,4.74L43,211.36Z"/><path class="cls-1" d="M45.21,117l1.29,3.78L39.7,123c.08-.92-.2-2.28.3-2.68a48,48,0,0,1,5.34-3.42S45.21,117,45.21,117Z"/><path class="cls-1" d="M38.54,217.27l3.07,3.52-2.83,4.07-4.05-2.47L32.81,220q2.89-1.29,5.78-2.61Z"/><path class="cls-1" d="M39.15,266.27c-2.9.44-1.38,6.15-5.81,3.88-.51-.26-.74-2.34-.28-3C34.37,265.35,35.54,261.78,39.15,266.27Z"/><path class="cls-1" d="M29.32,89.22l3.8-1,1,1.27-5.7,5-1.25-8.26,1.4-.25Z"/><path class="cls-1" d="M44.58,258l4.39.86L42.38,267c1-3.85,1.67-6.52,2.35-9.18Z"/><path class="cls-1" d="M113.33,14.68c.58,3,1.15,6.07,1.73,9.1-5-2.1-3.2-5.75-3.13-9Z"/><path class="cls-1" d="M74.72,135l16.7-9.46,1.06,1.85q-8.3,4.68-16.58,9.37Z"/><path class="cls-1" d="M128.13,176.49a17.47,17.47,0,0,1-2.37,2.2C118.87,183,112,187.38,105,191.47c-1.22.72-3.15.22-4.76.28.82-1.37,1.31-3.24,2.51-4C109.34,183.29,116.08,179,123,175c1.23-.72,3.26-.1,4.93-.1Z"/><path class="cls-1" d="M159.67,233.51c1-.71,1.63-1.57,2.47-1.77a61.25,61.25,0,0,1,6.07-.92c-.35,1.05-.44,2.78-1.11,3.05C164.86,234.77,162.45,238.76,159.67,233.51Z"/><path class="cls-1" d="M72.85,202.19q5.57-3,11.14-5.93l1,1.89-11.16,5.9Z"/><path class="cls-1" d="M131.06,129.49c-.72,4.1-1.87,5.93-4.77,4-1-.64-1.24-2.36-1.83-3.58Z"/><path class="cls-1" d="M56.61,190.5l13.46-6.26,1,2.07L57.64,192.8Z"/><path class="cls-1" d="M48.21,198.58c-2.93-1.83-5.88-3.65-8.8-5.52-1.54-1-3-2.08-4.53-3.13l.81-1.35c4.12,2.16,8.29,4.23,12.28,6.61.55.33.16,2.22.19,3.41Z"/><path class="cls-1" d="M73.65,20.09V4.77l1.55,0V20.12Z"/><path class="cls-1" d="M63.71,83.66,43.77,93.86l-1-1.92L62.56,81.73Z"/><path class="cls-1" d="M108.42,68.21,97.72,88.13l-1.57-.82,10.59-20Z"/><path class="cls-1" d="M33.42,123.68l-10.77,5.63-1.11-2.09,10.74-5.68Z"/><path class="cls-1" d="M31,214.87l-5.17-1.15-.53,1.06,2.46,3.39c-4.14-1-6-2.68-3.75-6.3l-6.17-5.12Z"/></g></g></g></svg>