<svg id="Layer_1" data-name="Layer 1" xmlns="http://www.w3.org/2000/svg" viewBox="0 0 220.15 117.73"><defs><style>.cls-1{fill:#fff;}</style></defs><path class="cls-1" d="M633.19,757.2l30.35-30.38,64.69-64.69a22.73,22.73,0,0,1,3.7-3.32,6.93,6.93,0,0,1,9.14,1c2.86,2.76,3.47,6,1.23,9.48a23.83,23.83,0,0,1-3.34,3.7q-49.29,49.34-98.6,98.64c-4.87,4.87-8.74,4.92-13.68,0Q576.82,721.77,527,671.89c-4.25-4.25-4.64-8.86-1.14-12.17s7.63-2.78,11.82,1.38q44.5,44.22,88.95,88.49C628.86,751.81,630.75,754.36,633.19,757.2Z" transform="translate(-523.51 -657.52)"/></svg>