<?xml version="1.0" encoding="utf-8"?>
<!-- Generator: Adobe Illustrator 24.1.0, SVG Export Plug-In . SVG Version: 6.00 Build 0)  -->
<svg version="1.1" id="Layer_1" xmlns="http://www.w3.org/2000/svg" xmlns:xlink="http://www.w3.org/1999/xlink" x="0px" y="0px"
	 viewBox="0 0 909.2 208.6" style="enable-background:new 0 0 909.2 208.6;" xml:space="preserve">
<style type="text/css">
	.st0{fill:#333333;}
	.st1{fill:#3936AB;}
</style>
<g id="text_-_purple">
	<path class="st0" d="M332.7,51.1V59h-33.9v89.3h-9.3V59h-33.8v-7.9H332.7z"/>
	<path class="st0" d="M347.4,51.1v13.7h-8.6V51.1H347.4z M347.4,78.1v70.2h-8.6V78.1H347.4z"/>
	<path class="st0" d="M367,78.1v11.8h0.4c2-4.1,5.1-7.6,8.9-10.2c3.7-2.4,8.4-3.7,14.1-3.7c4.4,0,8.8,1.1,12.6,3.4
		c3.8,2.3,6.5,6,7.5,10.3c1.9-4.4,5.1-8,9.2-10.3c4-2.2,8.5-3.4,13.1-3.4c15.5,0,23.3,8.2,23.3,24.6v47.6h-8.6V101
		c0-5.8-1.2-10.2-3.7-13.3c-2.5-3-6.8-4.6-12.9-4.6c-3.2-0.1-6.4,0.6-9.2,2.1c-2.4,1.4-4.4,3.3-5.9,5.7c-1.5,2.5-2.5,5.2-3.1,8.1
		c-0.6,3.1-0.9,6.3-0.9,9.5v39.7h-8.6v-47.6c0-2.3-0.2-4.5-0.7-6.7c-0.4-2-1.3-3.9-2.5-5.6c-1.2-1.6-2.7-2.9-4.6-3.7
		c-2.2-1-4.6-1.4-6.9-1.4c-3.3-0.1-6.5,0.6-9.5,2c-2.6,1.2-4.8,3.1-6.5,5.4c-1.8,2.5-3,5.2-3.8,8.2c-0.8,3.4-1.2,6.8-1.2,10.3v39.2
		h-8.6V78.1H367z"/>
	<path class="st0" d="M474,125.1c0.8,3.2,2.2,6.2,4.1,8.9s4.4,4.9,7.2,6.5c3.2,1.8,6.8,2.7,10.5,2.6c6.3,0,11.2-1.6,14.7-4.9
		c3.7-3.5,6.2-8.1,7.3-13.1h8.6c-1.8,8-5.2,14.2-10,18.5c-4.8,4.3-11.7,6.5-20.6,6.5c-4.9,0.1-9.9-0.9-14.4-2.9
		c-3.9-1.8-7.3-4.6-9.9-8c-2.6-3.6-4.5-7.6-5.6-11.8c-1.2-4.6-1.9-9.4-1.8-14.2c0-4.6,0.6-9.2,1.8-13.6c1.1-4.3,3.1-8.3,5.6-11.9
		c2.6-3.5,6-6.4,9.9-8.4c4.5-2.2,9.4-3.3,14.4-3.2c9.6-0.4,18.8,4.3,24.1,12.3c2.6,3.8,4.4,8.1,5.4,12.7c1.1,4.8,1.5,9.6,1.4,14.5
		h-54C472.7,118.7,473.1,122,474,125.1z M516.4,98.9c-1-2.9-2.5-5.6-4.4-8c-1.9-2.3-4.3-4.2-6.9-5.6c-2.9-1.4-6-2.2-9.2-2.1
		c-3.3-0.1-6.5,0.7-9.4,2.1c-2.7,1.4-5,3.3-6.9,5.6c-2,2.4-3.5,5.1-4.6,8c-1.1,3-1.9,6.1-2.2,9.3h45.5
		C518.1,105,517.5,101.9,516.4,98.9L516.4,98.9z"/>
	<path class="st0" d="M594.5,78.1v7.2h-14.3v47.4c-0.1,2.3,0.3,4.5,1.2,6.6c0.8,1.6,2.7,2.5,5.8,2.6c2.5,0,4.9-0.1,7.3-0.4v7.2
		c-1.3,0-2.5,0.1-3.8,0.1s-2.5,0.1-3.8,0.1c-5.7,0-9.7-1.1-12-3.3s-3.4-6.3-3.3-12.3v-48h-12.2V78h12.2V57h8.6v21.1H594.5z"/>
	<path class="st0" d="M646,79c4,1.9,7.6,4.6,10.4,8c2.9,3.5,5,7.5,6.4,11.8c2.9,9.3,2.9,19.4,0,28.7c-1.3,4.3-3.5,8.3-6.4,11.8
		c-2.8,3.4-6.4,6.1-10.4,8c-9.1,3.9-19.4,3.9-28.4,0c-4-1.9-7.6-4.6-10.4-8c-2.9-3.5-5.1-7.5-6.4-11.8c-2.9-9.4-2.9-19.4,0-28.7
		c1.4-4.3,3.5-8.3,6.4-11.8c2.9-3.4,6.4-6.1,10.4-8C626.6,75,637,75,646,79z M621,85.8c-3,1.7-5.7,4-7.7,6.8
		c-2.1,2.9-3.6,6.2-4.6,9.6c-2.1,7.2-2.1,14.8,0,21.9c1,3.4,2.5,6.7,4.6,9.6c2,2.8,4.7,5.1,7.7,6.8c6.8,3.4,14.7,3.4,21.5,0
		c3-1.7,5.7-4,7.7-6.8c2.1-2.9,3.7-6.1,4.6-9.6c2.1-7.2,2.1-14.8,0-21.9c-1-3.4-2.5-6.7-4.6-9.6c-2-2.8-4.7-5.1-7.7-6.8
		C635.8,82.4,627.8,82.4,621,85.8z"/>
	<path class="st1" d="M774.3,51.1V59h-33.9v89.3h-9.2V59h-33.8v-7.9H774.3z"/>
	<path class="st1" d="M763.7,89c1.4-2.9,3.4-5.4,5.9-7.3c2.6-2,5.6-3.4,8.8-4.2c3.6-0.9,7.4-1.4,11.2-1.4c3.1,0,6.2,0.3,9.2,0.9
		c3,0.5,5.8,1.7,8.3,3.3c2.6,1.7,4.6,4.1,6,6.9c1.5,2.9,2.3,6.8,2.3,11.5V136c0,3.4,1.7,5.2,5,5.2c0.9,0,1.9-0.2,2.7-0.5v7.2
		c-1,0.2-1.9,0.3-2.7,0.4c-1,0.1-2,0.1-2.9,0.1c-1.8,0.1-3.6-0.2-5.2-0.9c-1.2-0.5-2.3-1.4-3.1-2.5c-0.8-1.2-1.2-2.5-1.4-3.9
		c-0.2-1.7-0.4-3.3-0.3-5h-0.3c-1.4,2.1-3,4.1-4.7,6.1c-1.5,1.7-3.3,3.2-5.3,4.4c-2.1,1.2-4.3,2.1-6.7,2.7c-2.9,0.7-5.9,1-8.9,0.9
		c-3.1,0-6.2-0.4-9.2-1.2c-2.7-0.7-5.3-1.9-7.5-3.7c-2.1-1.7-3.9-3.9-5-6.4c-1.3-2.9-1.9-6-1.8-9.2c0-4.9,1.1-8.7,3.3-11.5
		c2.3-2.8,5.3-5,8.7-6.3c3.9-1.5,8-2.6,12.1-3.1c4.5-0.6,9.1-1.2,13.7-1.7c1.8-0.2,3.4-0.4,4.8-0.7c1.2-0.2,2.4-0.7,3.4-1.4
		c0.9-0.7,1.7-1.7,2.1-2.8c0.6-1.5,0.8-3.1,0.8-4.6c0.1-2.5-0.4-4.9-1.4-7.1c-0.9-1.8-2.3-3.3-4-4.4c-1.8-1.1-3.8-1.9-5.8-2.2
		c-2.4-0.4-4.7-0.6-7.1-0.6c-5.5,0-9.9,1.3-13.3,3.9c-3.4,2.6-5.3,6.7-5.4,12.5h-8.6C761.3,95.9,762.1,92.3,763.7,89z M806.5,110
		c-0.7,1.1-1.8,1.9-3.1,2.2c-1.3,0.4-2.7,0.7-4.1,0.9c-3.6,0.6-7.4,1.2-11.2,1.7c-3.6,0.4-7.1,1.2-10.5,2.2
		c-2.9,0.8-5.6,2.3-7.8,4.3c-2,1.9-3.1,4.5-3.1,8c0,2,0.4,4,1.3,5.8c0.8,1.7,2,3.2,3.5,4.4s3.2,2.2,5,2.8c1.9,0.6,3.9,1,5.8,0.9
		c3.2,0,6.4-0.5,9.4-1.5c2.9-0.9,5.5-2.4,7.8-4.4c4.7-4,7.4-10,7.3-16.2v-11.2L806.5,110z"/>
	<path class="st1" d="M836.5,51.1v97.2h-8.6V51.1H836.5z"/>
	<path class="st1" d="M856.8,51.1v61l38.9-34h11.4l-29.9,26l32,44.2h-10.8L870.6,110l-13.9,11.6v26.7h-8.6V51.1H856.8z"/>
</g>
<g id="heart_-_purple">
	<path class="st1" d="M86.7,183.5c9.1,8.1,18.1,16.3,27,24.7c0.6,0.6,0.9,0.2,1.3-0.1c8.8-8.4,17.7-16.6,26.8-24.6L86.7,183.5
		L86.7,183.5z"/>
	<path class="st1" d="M78.8,46.3h148.3c-2.5-12.8-9.3-24.3-19.3-32.6c-9.4-7.9-21.1-12.6-33.3-13.5c-9-0.8-18.1,0.5-26.5,3.8
		c-12.1,4.7-21.7,12.7-29.5,23.1c-1.5,2-2.9,4.1-4.2,6.2c-0.4-0.2-0.5-0.5-0.6-0.8c-3.4-5.6-7.6-10.8-12.4-15.3
		C84.7,1.9,65.3-3.6,43.3,2S5.7,25,1.3,46.3H78.8z"/>
	<path class="st1" d="M163.1,54.2v89.3h-9.3V54.2H74.4v89.3h-9.3V54.2h-65C0,55,0,55.8,0,56.5c-0.3,7.9,0.2,15.9,1.5,23.7
		c1.6,10.4,5.1,20.5,10.4,29.6s12.1,17,19.5,24.4c9.1,9.1,18.8,17.5,28.5,25.9c5.9,5.1,11.8,10.3,17.8,15.4h31.9V86.4h9.3v89.3h31.8
		c12.2-10.7,24.7-21.2,36.7-32.2c7.7-6.9,14.8-14.3,21.4-22.3c7.5-9.2,13-19.8,16.1-31.3c2.1-8.3,3.3-16.9,3.5-25.5
		c0.1-3.4,0.1-6.8-0.1-10.1L163.1,54.2z"/>
</g>
</svg>
